<svg width="40" height="19" viewBox="0 0 40 19" fill="none" xmlns="http://www.w3.org/2000/svg">
<path d="M14.1983 4.48L18.3608 9.375L14.2008 14.27C13.2355 15.2219 12.0104 15.8672 10.6794 16.1248C9.34839 16.3823 7.97096 16.2406 6.72028 15.7175C5.4696 15.1944 4.40151 14.3131 3.65029 13.1846C2.89907 12.0561 2.49827 10.7307 2.49827 9.375C2.49827 8.01932 2.89907 6.6939 3.65029 5.56539C4.40151 4.43688 5.4696 3.55565 6.72028 3.03251C7.97096 2.50936 9.34839 2.36766 10.6794 2.62521C12.0104 2.88276 13.2355 3.52807 14.2008 4.48H14.1983ZM19.9983 7.445L16.0383 2.7825L16.0033 2.745C14.692 1.43413 13.0216 0.541498 11.2031 0.179961C9.38456 -0.181575 7.49968 0.00422589 5.78677 0.71387C4.07386 1.42351 2.60983 2.62513 1.5798 4.16679C0.549772 5.70845 0 7.52091 0 9.375C0 11.2291 0.549772 13.0416 1.5798 14.5832C2.60983 16.1249 4.07386 17.3265 5.78677 18.0361C7.49968 18.7458 9.38456 18.9316 11.2031 18.57C13.0216 18.2085 14.692 17.3159 16.0033 16.005L16.0383 15.9675L19.9983 11.305L23.9583 15.9675L23.9933 16.005C25.3045 17.3159 26.9749 18.2085 28.7934 18.57C30.6119 18.9316 32.4968 18.7458 34.2097 18.0361C35.9226 17.3265 37.3867 16.1249 38.4167 14.5832C39.4467 13.0416 39.9965 11.2291 39.9965 9.375C39.9965 7.52091 39.4467 5.70845 38.4167 4.16679C37.3867 2.62513 35.9226 1.42351 34.2097 0.71387C32.4968 0.00422589 30.6119 -0.181575 28.7934 0.179961C26.9749 0.541498 25.3045 1.43413 23.9933 2.745L23.9583 2.7825L19.9983 7.445ZM21.6383 9.375L25.7958 4.48C26.761 3.52807 27.9861 2.88276 29.3171 2.62521C30.6481 2.36766 32.0255 2.50936 33.2762 3.03251C34.5269 3.55565 35.595 4.43688 36.3462 5.56539C37.0974 6.6939 37.4982 8.01932 37.4982 9.375C37.4982 10.7307 37.0974 12.0561 36.3462 13.1846C35.595 14.3131 34.5269 15.1944 33.2762 15.7175C32.0255 16.2406 30.6481 16.3823 29.3171 16.1248C27.9861 15.8672 26.761 15.2219 25.7958 14.27L21.6383 9.375Z" fill="#9C9C9C"/>
</svg>
