<svg width="32" height="32" viewBox="0 0 32 32" fill="none" xmlns="http://www.w3.org/2000/svg">
<path fill-rule="evenodd" clip-rule="evenodd" d="M29.4995 2.50055H2.5V29.5H29.4995V2.50055ZM1.68191 0.000552415H30.2313C30.4578 -0.00518226 30.6833 0.0337799 30.8948 0.115213C31.1063 0.196646 31.2997 0.318954 31.4639 0.475148C31.6281 0.631341 31.7599 0.81836 31.8518 1.02552C31.9437 1.23267 31.9939 1.45591 31.9995 1.68246V30.275C31.9995 30.7325 31.8177 31.1712 31.4942 31.4948C31.1707 31.8183 30.7319 32 30.2744 32H1.72504C1.26753 32 0.828759 31.8183 0.505252 31.4948C0.181745 31.1712 8.41676e-08 30.7325 8.41676e-08 30.275V1.72559C-0.000140435 1.27546 0.175673 0.843098 0.489911 0.520802C0.804149 0.198506 1.23192 0.0118057 1.68191 0.000552415ZM25.7721 4.2785C25.3986 4.27341 25.0319 4.37921 24.7185 4.58251C24.4051 4.7858 24.159 5.07747 24.0113 5.42063C23.8637 5.76378 23.8211 6.14302 23.8889 6.51038C23.9568 6.87774 24.1321 7.21673 24.3926 7.48448C24.6531 7.75223 24.9872 7.93673 25.3525 8.01463C25.7179 8.09253 26.0982 8.06034 26.4452 7.92214C26.7923 7.78393 27.0906 7.54592 27.3024 7.23819C27.5142 6.93046 27.63 6.56683 27.6352 6.19329V6.14154C27.6307 5.64882 27.4329 5.17756 27.0845 4.82914C26.7361 4.48072 26.2648 4.283 25.7721 4.2785ZM13.4948 9.25315C14.2792 8.96511 15.1123 8.81543 15.9566 8.81543C17.8507 8.81543 19.6672 9.56785 21.0065 10.9072C22.3459 12.2465 23.0983 14.063 23.0983 15.9571C23.0983 16.8015 22.9486 17.6345 22.6606 18.4189C22.4668 18.9467 22.2103 19.4524 21.8947 19.9248C21.11 21.0992 19.9946 22.0146 18.6896 22.5551C17.3847 23.0957 15.9487 23.2371 14.5634 22.9615C13.178 22.686 11.9055 22.0058 10.9067 21.007C9.90794 20.0082 9.22776 18.7357 8.9522 17.3504C8.67664 15.965 8.81807 14.5291 9.3586 13.2241C9.89914 11.9191 10.8145 10.8038 11.9889 10.019C12.4613 9.70339 12.9671 9.44695 13.4948 9.25315ZM13.3779 12.0977C14.1412 11.5877 15.0386 11.3154 15.9566 11.3154C17.1877 11.3154 18.3683 11.8045 19.2388 12.6749C20.1093 13.5454 20.5983 14.726 20.5983 15.9571C20.5983 16.8751 20.3261 17.7725 19.816 18.5359C19.306 19.2992 18.5811 19.8941 17.7329 20.2454C16.8848 20.5967 15.9515 20.6887 15.0511 20.5096C14.1507 20.3305 13.3236 19.8884 12.6745 19.2392C12.0253 18.5901 11.5833 17.763 11.4042 16.8626C11.2251 15.9622 11.317 15.029 11.6683 14.1808C12.0196 13.3326 12.6146 12.6077 13.3779 12.0977Z" fill="#C10D81"/>
</svg>
