<svg width="80" height="60" viewBox="0 0 80 60" fill="none" xmlns="http://www.w3.org/2000/svg">
<g clip-path="url(#clip0_83_91)">
<path d="M40.2723 0L29.6715 22.9295H29.6866L33.09 30.3075L40.2723 14.7859L47.4545 30.3077L50.8579 22.9295H50.873L40.2723 0ZM26.2585 30.3118L25.9793 30.9157L22.8572 37.6364H29.6333L26.2585 30.3118ZM54.286 30.3118L50.9112 37.6364H57.6871L54.5649 30.9157L54.286 30.3118Z" fill="#C10D81"/>
<path d="M54.2859 30.3115L50.9111 37.6362H57.687L54.5654 30.9155L54.2859 30.3115Z" fill="#C10D81"/>
<path d="M26.2585 30.3115L25.9793 30.9155L22.8572 37.6362H29.6333L26.2585 30.3115Z" fill="#C10D81"/>
<path d="M40.2856 37.6362L40.0064 37.0322L36.8843 30.3115H43.6604L40.2856 37.6362Z" fill="#C10D81"/>
<path d="M11.7069 57.2727L6.60434 47.2363L1.50177 57.2727L0.387207 59.4545H2.8253L3.93986 57.2727L6.60434 52.0363L9.26883 57.2727L10.3834 59.4545H12.8215L11.7069 57.2727Z" fill="white"/>
<path d="M24.3215 52.3156C24.6524 51.8094 24.844 51.1985 24.844 50.5352C24.844 48.72 23.3637 47.2363 21.5526 47.2363H13.8726V59.4545H22.1795C24.3215 59.4545 26.063 57.7091 26.063 55.5622C26.063 54.2007 25.3664 53.0138 24.3215 52.3156ZM16.0494 49.4181H21.57C22.1795 49.4181 22.6845 49.9243 22.6845 50.5352C22.6845 51.1462 22.1795 51.6523 21.57 51.6523H16.0494V49.4181ZM22.1795 57.2727H16.0494V53.8342H22.1795C23.1199 53.8342 23.8862 54.6022 23.8862 55.5447C23.8862 56.4872 23.1199 57.2552 22.1795 57.2552V57.2727Z" fill="white"/>
<path d="M38.9046 50.6051V50.5352C38.9046 48.72 37.4243 47.2363 35.6132 47.2363H30.6673C28.8562 47.2363 27.3933 48.72 27.3933 50.5352V50.6051C27.3933 51.3032 27.6023 51.9491 27.968 52.4727C28.0899 52.6647 28.2292 52.8392 28.386 52.9963C28.9781 53.5723 29.7792 53.9214 30.6673 53.9214H35.0559C35.9789 53.9214 36.7451 54.672 36.7451 55.5971C36.7451 56.5222 35.9789 57.2727 35.0559 57.2727H31.242C30.319 57.2727 29.5702 56.5222 29.5702 55.5971H27.3933C27.3933 57.7265 29.1174 59.4545 31.242 59.4545H35.0559C37.1805 59.4545 38.9046 57.7265 38.9046 55.5971C38.9046 54.672 38.5737 53.8167 38.0339 53.1534C37.9816 53.1011 37.9468 53.0487 37.8945 52.9963C37.1979 52.2283 36.1879 51.7396 35.0559 51.7396H30.6673C30.0578 51.7396 29.5528 51.2334 29.5528 50.6225V50.5527C29.5528 49.9418 30.0578 49.4356 30.6673 49.4356H35.6132C36.2227 49.4356 36.7277 49.9418 36.7277 50.5527V50.6225L38.9046 50.6051Z" fill="white"/>
<path d="M50.6547 47.2363V53.3454C50.6547 55.5098 48.8958 57.2727 46.7363 57.2727C44.5769 57.2727 42.818 55.5098 42.818 53.3454V47.2363H40.6411V53.3454C40.6411 56.7142 43.3753 59.4545 46.7363 59.4545C50.0974 59.4545 52.8316 56.7142 52.8316 53.3454V47.2363H50.6547Z" fill="white"/>
<path d="M62.6679 53.8168C62.9988 53.7819 63.3122 53.6946 63.6083 53.555C64.7402 53.0314 65.5239 51.8794 65.5239 50.5528C65.5239 49.6452 65.1582 48.8248 64.5661 48.2139C63.974 47.6204 63.1555 47.2539 62.2499 47.2539H54.5525V59.4721H56.7294V53.8517H58.9062C59.6899 53.8517 60.3691 54.2706 60.7522 54.899L60.8045 55.0037L61.9713 57.2903L63.0858 59.4721H65.5239L64.4094 57.2903L62.6679 53.8168ZM56.7294 51.6874V49.4357H62.2499C62.633 49.4357 62.8943 49.6103 63.0336 49.7499C63.1555 49.8721 63.3645 50.1514 63.3645 50.5528C63.3645 50.9892 63.1032 51.3906 62.7027 51.5652C62.5634 51.635 62.4066 51.6699 62.2499 51.6699L56.7294 51.6874Z" fill="white"/>
<path d="M67.2908 47.2363V59.4545H73.386C75.0578 59.4545 76.5729 58.7738 77.6701 57.6567C77.792 57.5345 77.9139 57.4123 78.0184 57.2902C78.924 56.2254 79.4638 54.8465 79.4638 53.3454C79.4638 49.9767 76.7297 47.2538 73.3686 47.2538L67.2908 47.2363ZM69.4502 49.4356H73.3686C75.5281 49.4356 77.287 51.1985 77.287 53.3629C77.287 55.5272 75.5281 57.2902 73.3686 57.2902H69.4502V49.4356Z" fill="white"/>
</g>
<defs>
<clipPath id="clip0_83_91">
<rect width="80" height="60" fill="white"/>
</clipPath>
</defs>
</svg>
