<svg width="196" height="640" viewBox="0 0 196 640" fill="none" xmlns="http://www.w3.org/2000/svg">
<path fill-rule="evenodd" clip-rule="evenodd" d="M47.793 50.2072L-0.707031 1.70718L0.707182 0.292969L48.9143 48.5001H113H113.414L113.707 48.793L136.707 71.793L137 72.0859V72.5001V254H135V72.9143L112.586 50.5001H48.5001H48.0859L47.793 50.2072ZM166 183V303.586L195.707 333.293L196 333.586V334V443V443.414L195.707 443.707L166 473.414V623H165.158H164V473V472.586L164.293 472.293L194 442.586V334.414L164.293 304.707L164 304.414V304V183H166ZM165.158 623C169.663 623 173.316 626.652 173.316 631.158C173.316 635.663 169.663 639.315 165.158 639.315C160.652 639.315 157 635.663 157 631.158C157 626.652 160.652 623 165.158 623ZM171.316 631.158C171.316 634.559 168.559 637.315 165.158 637.315C161.757 637.315 159 634.559 159 631.158C159 627.757 161.757 625 165.158 625C168.559 625 171.316 627.757 171.316 631.158ZM109.793 108.293L84.293 133.793L84.0001 134.086V134.5V280.5V280.914L84.293 281.207L109.5 306.414V478.5H111.5V306V305.586L111.207 305.293L86.0001 280.086V134.914L111.207 109.707L109.793 108.293Z" fill="#34107E"/>
</svg>
