<svg width="184" height="546" viewBox="0 0 184 546" fill="none" xmlns="http://www.w3.org/2000/svg">
<path fill-rule="evenodd" clip-rule="evenodd" d="M143.707 142.293L1.70709 0.292969L0.292877 1.70718L142 143.414V221.082C138.043 221.644 135 225.045 135 229.158C135 233.663 138.652 237.315 143.158 237.315C147.663 237.315 151.315 233.663 151.315 229.158C151.315 224.937 148.11 221.465 144 221.043V143V142.586L143.707 142.293ZM104.366 161.463L-0.706055 56.7082L0.706023 55.2919L106.072 160.34L106.366 160.633V161.048L106.366 502.04L135.139 530.726C136.523 529.645 138.265 529 140.158 529C144.663 529 148.315 532.652 148.315 537.158C148.315 541.663 144.663 545.315 140.158 545.315C135.652 545.315 132 541.663 132 537.158C132 535.266 132.644 533.524 133.725 532.141L104.66 503.163L104.366 502.87V502.455L104.366 161.463ZM182 239.848V164H184V240.259V240.671L183.711 240.963L143 282.087L143 449H141L141 281.676V281.265L141.289 280.972L182 239.848ZM146.315 537.158C146.315 540.559 143.559 543.315 140.158 543.315C136.757 543.315 134 540.559 134 537.158C134 533.757 136.757 531 140.158 531C143.559 531 146.315 533.757 146.315 537.158ZM143.158 235.315C146.559 235.315 149.315 232.559 149.315 229.158C149.315 225.757 146.559 223 143.158 223C139.757 223 137 225.757 137 229.158C137 232.559 139.757 235.315 143.158 235.315Z" fill="#34107E"/>
</svg>
