<svg width="216" height="664" viewBox="0 0 216 664" fill="none" xmlns="http://www.w3.org/2000/svg">
<path fill-rule="evenodd" clip-rule="evenodd" d="M98.3423 120.072L216.707 1.70706L215.293 0.292847L96.6352 118.951L96.3423 119.243V119.658V506.364L54.9581 547.749V222V221.586L54.6652 221.293L10.4614 177.089V92.1034C14.314 91.4514 17.2481 88.0985 17.2481 84.0604C17.2481 79.555 13.5957 75.9027 9.09034 75.9027C4.58495 75.9027 0.932617 79.555 0.932617 84.0604C0.932617 88.3541 4.24992 91.8731 8.46143 92.1942V177.503V177.918L8.75433 178.21L52.9581 222.414V550.163V552.577L54.6652 550.87L98.0494 507.486L98.3423 507.193V506.778V120.072ZM161.511 143.037L215.293 89.2858L216.707 90.7004L163.217 144.158V260.466V260.88L162.924 261.173L135.541 288.541L135.541 534.91V535.324L135.248 535.617L19.9728 650.824C21.054 652.208 21.6983 653.95 21.6983 655.842C21.6983 660.348 18.0459 664 13.5405 664C9.03515 664 5.38281 660.348 5.38281 655.842C5.38281 651.337 9.03515 647.685 13.5405 647.685C15.4328 647.685 17.1746 648.329 18.5585 649.41L133.541 534.495L133.541 288.126V287.712L133.834 287.419L161.217 260.052V143.744V143.33L161.511 143.037ZM7.38281 655.842C7.38281 659.243 10.1397 662 13.5405 662C16.9413 662 19.6983 659.243 19.6983 655.842C19.6983 652.441 16.9413 649.685 13.5405 649.685C10.1397 649.685 7.38281 652.441 7.38281 655.842ZM2.93262 84.0604C2.93262 87.4612 5.68952 90.2181 9.09034 90.2181C12.4912 90.2181 15.2481 87.4612 15.2481 84.0604C15.2481 80.6596 12.4912 77.9027 9.09034 77.9027C5.68952 77.9027 2.93262 80.6596 2.93262 84.0604Z" fill="#34107E"/>
</svg>
