<svg width="463" height="99" viewBox="0 0 463 99" fill="none" xmlns="http://www.w3.org/2000/svg">
<path fill-rule="evenodd" clip-rule="evenodd" d="M165.164 41.5658L71.2993 41.5659V39.5659L164.755 39.5658L204.458 0.594947L204.75 0.308601L205.159 0.308601L371.667 0.308594V2.30859L205.567 2.3086L165.865 41.2795L165.573 41.5658H165.164ZM460.315 27.1577C460.315 30.5585 457.559 33.3154 454.158 33.3154C450.757 33.3154 448 30.5585 448 27.1577C448 23.7568 450.757 20.9999 454.158 20.9999C457.559 20.9999 460.315 23.7568 460.315 27.1577ZM462.315 27.1577C462.315 31.663 458.663 35.3154 454.158 35.3154C449.652 35.3154 446 31.663 446 27.1577C446 22.6523 449.652 18.9999 454.158 18.9999C458.663 18.9999 462.315 22.6523 462.315 27.1577ZM212.381 71.7636L365.949 71.7636H366.366L366.66 71.4667L409.659 27.9767L446 27.9767V25.9767L409.242 25.9767H408.824L408.531 26.2736L365.531 69.7636L212.381 69.7636V71.7636ZM0 64.2143L148.825 64.2143L183.6 98.6524L183.892 98.9418H184.303L282.163 98.9418V96.9418L184.715 96.9418L149.94 62.5037L149.648 62.2143H149.237L0 62.2143V64.2143Z" fill="#34107E"/>
</svg>
