<svg width="462" height="99" viewBox="0 0 462 99" fill="none" xmlns="http://www.w3.org/2000/svg">
<path fill-rule="evenodd" clip-rule="evenodd" d="M296.836 41.5658L390.701 41.5659V39.5659L297.245 39.5658L257.542 0.594947L257.25 0.308601L256.841 0.308601L90.3333 0.308594V2.30859L256.433 2.3086L296.135 41.2795L296.427 41.5658H296.836ZM14.3154 27.1577C14.3154 30.5585 11.5585 33.3154 8.15772 33.3154C4.7569 33.3154 2 30.5585 2 27.1577C2 23.7568 4.7569 20.9999 8.15772 20.9999C11.5585 20.9999 14.3154 23.7568 14.3154 27.1577ZM16.2748 27.9767C15.864 32.0975 12.3867 35.3154 8.15772 35.3154C3.65233 35.3154 0 31.663 0 27.1577C0 22.6523 3.65233 18.9999 8.15772 18.9999C12.262 18.9999 15.6584 22.0309 16.2306 25.9767L52.7583 25.9767H53.1758L53.4694 26.2736L96.4689 69.7636L249.619 69.7636V71.7636L96.0513 71.7636H95.6338L95.3402 71.4667L52.3407 27.9767L16.2748 27.9767ZM462 64.2143L313.175 64.2143L278.4 98.6524L278.108 98.9418H277.697L179.837 98.9418V96.9418L277.285 96.9418L312.06 62.5037L312.352 62.2143H312.763L462 62.2143V64.2143Z" fill="#34107E"/>
</svg>
