<svg width="184" height="546" viewBox="0 0 184 546" fill="none" xmlns="http://www.w3.org/2000/svg">
<path fill-rule="evenodd" clip-rule="evenodd" d="M40.2929 142.293L182.293 0.292969L183.707 1.70718L42 143.414V221.082C45.9571 221.644 49 225.045 49 229.158C49 233.663 45.3477 237.315 40.8423 237.315C36.3369 237.315 32.6846 233.663 32.6846 229.158C32.6846 224.937 35.8904 221.465 40 221.043V143V142.586L40.2929 142.293ZM79.6342 161.463L184.706 56.7082L183.294 55.2919L77.9281 160.34L77.6342 160.633V161.048L77.6342 502.04L48.8613 530.726C47.4772 529.645 45.735 529 43.8423 529C39.3369 529 35.6846 532.652 35.6846 537.158C35.6846 541.663 39.3369 545.315 43.8423 545.315C48.3477 545.315 52 541.663 52 537.158C52 535.266 51.356 533.524 50.2753 532.141L79.3402 503.163L79.6342 502.87V502.455L79.6342 161.463ZM2 239.848L2 164H0L3.8147e-06 240.259V240.671L0.28933 240.963L41 282.087L41 449H43L43 281.676V281.265L42.7107 280.972L2 239.848ZM37.6846 537.158C37.6846 540.559 40.4415 543.315 43.8423 543.315C47.2431 543.315 50 540.559 50 537.158C50 533.757 47.2431 531 43.8423 531C40.4415 531 37.6846 533.757 37.6846 537.158ZM40.8423 235.315C37.4415 235.315 34.6846 232.559 34.6846 229.158C34.6846 225.757 37.4415 223 40.8423 223C44.2431 223 47 225.757 47 229.158C47 232.559 44.2431 235.315 40.8423 235.315Z" fill="#34107E"/>
</svg>
