<svg width="216" height="664" viewBox="0 0 216 664" fill="none" xmlns="http://www.w3.org/2000/svg">
<path fill-rule="evenodd" clip-rule="evenodd" d="M117.658 120.072L-0.707031 1.70706L0.707182 0.292847L119.365 118.951L119.658 119.243V119.658V506.364L161.042 547.749V222V221.586L161.335 221.293L205.539 177.089V92.1034C201.686 91.4515 198.752 88.0986 198.752 84.0604C198.752 79.555 202.404 75.9027 206.91 75.9027C211.415 75.9027 215.067 79.555 215.067 84.0604C215.067 88.3541 211.75 91.873 207.539 92.1942V177.503V177.918L207.246 178.21L163.042 222.414V550.163V552.577L161.335 550.87L117.951 507.486L117.658 507.193V506.778V120.072ZM54.4896 143.037L0.706949 89.2858L-0.706847 90.7004L52.7827 144.158L52.7827 260.466V260.88L53.0758 261.173L80.4592 288.541L80.4592 534.91V535.324L80.7523 535.617L196.027 650.824C194.946 652.208 194.302 653.95 194.302 655.842C194.302 660.348 197.954 664 202.46 664C206.965 664 210.618 660.348 210.618 655.842C210.618 651.337 206.965 647.685 202.46 647.685C200.567 647.685 198.826 648.329 197.442 649.41L82.4592 534.495L82.4592 288.126V287.712L82.1661 287.419L54.7827 260.052L54.7827 143.744V143.33L54.4896 143.037ZM208.618 655.842C208.618 659.243 205.861 662 202.46 662C199.059 662 196.302 659.243 196.302 655.842C196.302 652.441 199.059 649.685 202.46 649.685C205.861 649.685 208.618 652.441 208.618 655.842ZM213.067 84.0604C213.067 87.4612 210.31 90.2181 206.91 90.2181C203.509 90.2181 200.752 87.4612 200.752 84.0604C200.752 80.6596 203.509 77.9027 206.91 77.9027C210.31 77.9027 213.067 80.6596 213.067 84.0604Z" fill="#34107E"/>
</svg>
