<svg width="196" height="640" viewBox="0 0 196 640" fill="none" xmlns="http://www.w3.org/2000/svg">
<path fill-rule="evenodd" clip-rule="evenodd" d="M148.207 50.2072L196.707 1.70718L195.293 0.292969L147.086 48.5001H83H82.5858L82.2929 48.793L59.2929 71.793L59 72.0859V72.5001V254H61V72.9143L83.4142 50.5001H147.5H147.914L148.207 50.2072ZM30 183V303.586L0.292893 333.293L0 333.586V334V443V443.414L0.292893 443.707L30 473.414V623H31.1577C26.6523 623 23 626.652 23 631.158C23 635.663 26.6523 639.315 31.1577 639.315C35.6631 639.315 39.3154 635.663 39.3154 631.158C39.3154 626.652 35.6631 623 31.1577 623H32V473V472.586L31.7071 472.293L2 442.586V334.414L31.7071 304.707L32 304.414V304V183H30ZM37.3154 631.158C37.3154 634.559 34.5585 637.315 31.1577 637.315C27.7569 637.315 25 634.559 25 631.158C25 627.757 27.7569 625 31.1577 625C34.5585 625 37.3154 627.757 37.3154 631.158ZM86.2071 108.293L111.707 133.793L112 134.086V134.5V280.5V280.914L111.707 281.207L86.5 306.414V478.5H84.5V306V305.586L84.7929 305.293L110 280.086V134.914L84.7929 109.707L86.2071 108.293Z" fill="#34107E"/>
</svg>
