<svg width="217" height="664" viewBox="0 0 217 664" fill="none" xmlns="http://www.w3.org/2000/svg">
<path fill-rule="evenodd" clip-rule="evenodd" d="M118.658 120.072L0.292923 1.70718L1.70714 0.292969L120.365 118.951L120.658 119.244V119.658V506.364L162.042 547.749V222V221.586L162.335 221.293L206.539 177.089V92.1035C202.686 91.4517 199.752 88.0987 199.752 84.0605C199.752 79.5551 203.404 75.9028 207.909 75.9028C212.415 75.9028 216.067 79.5551 216.067 84.0605C216.067 88.3542 212.75 91.8731 208.539 92.1943V177.503V177.918L208.246 178.211L164.042 222.414V550.163V552.577L162.335 550.87L118.951 507.486L118.658 507.193V506.779V120.072ZM55.4896 143.037L1.7069 89.286L0.293108 90.7006L53.7826 144.159L53.7827 260.466V260.881L54.0758 261.173L81.4591 288.541L81.4591 534.91V535.324L81.7522 535.617L197.027 650.824C195.946 652.208 195.302 653.95 195.302 655.842C195.302 660.348 198.954 664 203.46 664C207.965 664 211.617 660.348 211.617 655.842C211.617 651.337 207.965 647.685 203.46 647.685C201.567 647.685 199.826 648.329 198.442 649.41L83.4591 534.495L83.4591 288.126V287.712L83.166 287.419L55.7827 260.052L55.7826 143.744V143.33L55.4896 143.037ZM209.617 655.842C209.617 659.243 206.861 662 203.46 662C200.059 662 197.302 659.243 197.302 655.842C197.302 652.442 200.059 649.685 203.46 649.685C206.861 649.685 209.617 652.442 209.617 655.842ZM214.067 84.0605C214.067 87.4613 211.31 90.2182 207.909 90.2182C204.509 90.2182 201.752 87.4613 201.752 84.0605C201.752 80.6597 204.509 77.9028 207.909 77.9028C211.31 77.9028 214.067 80.6597 214.067 84.0605Z" fill="url(#paint0_linear_116_27)"/>
<defs>
<linearGradient id="paint0_linear_116_27" x1="108.18" y1="0.292969" x2="108.18" y2="664" gradientUnits="userSpaceOnUse">
<stop stop-color="#34107E"/>
<stop offset="0.166667" stop-color="#C10D81"/>
<stop offset="0.369792" stop-color="#34107E"/>
</linearGradient>
</defs>
</svg>
