<svg width="24" height="24" viewBox="0 0 24 24" fill="none" xmlns="http://www.w3.org/2000/svg">
<path d="M21.8 8.34762C21.8 8.34762 21.6 7.04762 21 6.49048C20.2667 5.74762 19.4 5.74762 19 5.68571C16.2 5.5 12 5.5 12 5.5C12 5.5 7.8 5.5 5 5.68571C4.6 5.74762 3.73333 5.74762 3 6.49048C2.4 7.04762 2.2 8.34762 2.2 8.34762C2.2 8.34762 2 9.83333 2 11.319V12.681C2 14.1667 2.2 15.7143 2.2 15.7143C2.2 15.7143 2.4 17.0143 3 17.5714C3.73333 18.3143 4.73333 18.3143 5.2 18.3762C6.8 18.4381 12 18.5 12 18.5C12 18.5 16.2 18.5 19 18.3143C19.4 18.2524 20.2667 18.2524 21 17.5095C21.6 16.9524 21.8 15.6524 21.8 15.6524C21.8 15.6524 22 14.1667 22 12.681V11.319C22 9.83333 21.8 8.34762 21.8 8.34762ZM9.93333 14.4143V9.21429L15.3333 11.8143L9.93333 14.4143Z" fill="#9C9C9C"/>
</svg>
